<svg xmlns="http://www.w3.org/2000/svg" xmlns:xlink="http://www.w3.org/1999/xlink" style="margin:auto;background:#f1f2f3;display:block;z-index:1;position:relative" width="1083.997314453125" height="321.9921875" preserveAspectRatio="xMidYMid" viewBox="0 0 1083.997314453125 321.9921875">
<defs>
  <pattern id="pid-0.38937975301527583" x="0" y="0" width="163.84" height="163.84" patternUnits="userSpaceOnUse">
    <g transform="scale(0.64)"><g transform="translate(-150.81 150.81)">
  <line x1="181.53813343671098" x2="163.5735430572216" y1="172.52787896866712" y2="190.4924693481565" stroke-width="5" stroke="#85a2b6" stroke-linecap="round"></line><line x1="181.53813343671098" x2="163.5735430572216" y1="-339.4721210313329" y2="-321.50753065184347" stroke-width="5" stroke="#85a2b6" stroke-linecap="round"></line><line x1="437.53813343671095" x2="419.5735430572216" y1="-339.4721210313329" y2="-321.50753065184347" stroke-width="5" stroke="#85a2b6" stroke-linecap="round"></line><line x1="693.538133436711" x2="675.5735430572216" y1="-339.4721210313329" y2="-321.50753065184347" stroke-width="5" stroke="#85a2b6" stroke-linecap="round"></line><line x1="181.53813343671098" x2="163.5735430572216" y1="-83.47212103133288" y2="-65.5075306518435" stroke-width="5" stroke="#85a2b6" stroke-linecap="round"></line><line x1="437.53813343671095" x2="419.5735430572216" y1="-83.47212103133288" y2="-65.5075306518435" stroke-width="5" stroke="#85a2b6" stroke-linecap="round"></line><line x1="693.538133436711" x2="675.5735430572216" y1="-83.47212103133288" y2="-65.5075306518435" stroke-width="5" stroke="#85a2b6" stroke-linecap="round"></line><line x1="181.53813343671098" x2="163.5735430572216" y1="172.52787896866712" y2="190.4924693481565" stroke-width="5" stroke="#85a2b6" stroke-linecap="round"></line><line x1="437.53813343671095" x2="419.5735430572216" y1="172.52787896866712" y2="190.4924693481565" stroke-width="5" stroke="#85a2b6" stroke-linecap="round"></line><line x1="693.538133436711" x2="675.5735430572216" y1="172.52787896866712" y2="190.4924693481565" stroke-width="5" stroke="#85a2b6" stroke-linecap="round"></line><line x1="93.74293037750041" x2="78.79268356033393" y1="54.769328117621136" y2="69.71957493478763" stroke-width="5" stroke="#85a2b6" stroke-linecap="round"></line><line x1="93.74293037750041" x2="78.79268356033393" y1="-457.2306718823789" y2="-442.2804250652124" stroke-width="5" stroke="#85a2b6" stroke-linecap="round"></line><line x1="349.74293037750044" x2="334.7926835603339" y1="-457.2306718823789" y2="-442.2804250652124" stroke-width="5" stroke="#85a2b6" stroke-linecap="round"></line><line x1="605.7429303775004" x2="590.7926835603339" y1="-457.2306718823789" y2="-442.2804250652124" stroke-width="5" stroke="#85a2b6" stroke-linecap="round"></line><line x1="93.74293037750041" x2="78.79268356033393" y1="-201.23067188237886" y2="-186.28042506521237" stroke-width="5" stroke="#85a2b6" stroke-linecap="round"></line><line x1="349.74293037750044" x2="334.7926835603339" y1="-201.23067188237886" y2="-186.28042506521237" stroke-width="5" stroke="#85a2b6" stroke-linecap="round"></line><line x1="605.7429303775004" x2="590.7926835603339" y1="-201.23067188237886" y2="-186.28042506521237" stroke-width="5" stroke="#85a2b6" stroke-linecap="round"></line><line x1="93.74293037750041" x2="78.79268356033393" y1="54.769328117621136" y2="69.71957493478763" stroke-width="5" stroke="#85a2b6" stroke-linecap="round"></line><line x1="349.74293037750044" x2="334.7926835603339" y1="54.769328117621136" y2="69.71957493478763" stroke-width="5" stroke="#85a2b6" stroke-linecap="round"></line><line x1="605.7429303775004" x2="590.7926835603339" y1="54.769328117621136" y2="69.71957493478763" stroke-width="5" stroke="#85a2b6" stroke-linecap="round"></line><line x1="60.18715090056664" x2="34.20167743368493" y1="114.7735143111855" y2="140.75898777806722" stroke-width="5" stroke="#85a2b6" stroke-linecap="round"></line><line x1="60.18715090056664" x2="34.20167743368493" y1="-397.2264856888145" y2="-371.2410122219328" stroke-width="5" stroke="#85a2b6" stroke-linecap="round"></line><line x1="316.1871509005666" x2="290.20167743368495" y1="-397.2264856888145" y2="-371.2410122219328" stroke-width="5" stroke="#85a2b6" stroke-linecap="round"></line><line x1="572.1871509005666" x2="546.201677433685" y1="-397.2264856888145" y2="-371.2410122219328" stroke-width="5" stroke="#85a2b6" stroke-linecap="round"></line><line x1="60.18715090056664" x2="34.20167743368493" y1="-141.2264856888145" y2="-115.24101222193278" stroke-width="5" stroke="#85a2b6" stroke-linecap="round"></line><line x1="316.1871509005666" x2="290.20167743368495" y1="-141.2264856888145" y2="-115.24101222193278" stroke-width="5" stroke="#85a2b6" stroke-linecap="round"></line><line x1="572.1871509005666" x2="546.201677433685" y1="-141.2264856888145" y2="-115.24101222193278" stroke-width="5" stroke="#85a2b6" stroke-linecap="round"></line><line x1="60.18715090056664" x2="34.20167743368493" y1="114.7735143111855" y2="140.75898777806722" stroke-width="5" stroke="#85a2b6" stroke-linecap="round"></line><line x1="316.1871509005666" x2="290.20167743368495" y1="114.7735143111855" y2="140.75898777806722" stroke-width="5" stroke="#85a2b6" stroke-linecap="round"></line><line x1="572.1871509005666" x2="546.201677433685" y1="114.7735143111855" y2="140.75898777806722" stroke-width="5" stroke="#85a2b6" stroke-linecap="round"></line><line x1="245.42023187640507" x2="236.87358575985945" y1="173.5347616521314" y2="182.08140776867702" stroke-width="5" stroke="#85a2b6" stroke-linecap="round"></line><line x1="245.42023187640507" x2="236.87358575985945" y1="-338.4652383478686" y2="-329.918592231323" stroke-width="5" stroke="#85a2b6" stroke-linecap="round"></line><line x1="501.42023187640507" x2="492.87358575985945" y1="-338.4652383478686" y2="-329.918592231323" stroke-width="5" stroke="#85a2b6" stroke-linecap="round"></line><line x1="757.4202318764051" x2="748.8735857598595" y1="-338.4652383478686" y2="-329.918592231323" stroke-width="5" stroke="#85a2b6" stroke-linecap="round"></line><line x1="245.42023187640507" x2="236.87358575985945" y1="-82.46523834786859" y2="-73.91859223132298" stroke-width="5" stroke="#85a2b6" stroke-linecap="round"></line><line x1="501.42023187640507" x2="492.87358575985945" y1="-82.46523834786859" y2="-73.91859223132298" stroke-width="5" stroke="#85a2b6" stroke-linecap="round"></line><line x1="757.4202318764051" x2="748.8735857598595" y1="-82.46523834786859" y2="-73.91859223132298" stroke-width="5" stroke="#85a2b6" stroke-linecap="round"></line><line x1="245.42023187640507" x2="236.87358575985945" y1="173.5347616521314" y2="182.08140776867702" stroke-width="5" stroke="#85a2b6" stroke-linecap="round"></line><line x1="501.42023187640507" x2="492.87358575985945" y1="173.5347616521314" y2="182.08140776867702" stroke-width="5" stroke="#85a2b6" stroke-linecap="round"></line><line x1="757.4202318764051" x2="748.8735857598595" y1="173.5347616521314" y2="182.08140776867702" stroke-width="5" stroke="#85a2b6" stroke-linecap="round"></line><line x1="210.59564768064513" x2="201.01837766006554" y1="50.47912313837014" y2="60.05639315894973" stroke-width="5" stroke="#85a2b6" stroke-linecap="round"></line><line x1="210.59564768064513" x2="201.01837766006554" y1="-461.52087686162986" y2="-451.94360684105027" stroke-width="5" stroke="#85a2b6" stroke-linecap="round"></line><line x1="466.59564768064513" x2="457.01837766006554" y1="-461.52087686162986" y2="-451.94360684105027" stroke-width="5" stroke="#85a2b6" stroke-linecap="round"></line><line x1="722.5956476806451" x2="713.0183776600655" y1="-461.52087686162986" y2="-451.94360684105027" stroke-width="5" stroke="#85a2b6" stroke-linecap="round"></line><line x1="210.59564768064513" x2="201.01837766006554" y1="-205.52087686162986" y2="-195.94360684105027" stroke-width="5" stroke="#85a2b6" stroke-linecap="round"></line><line x1="466.59564768064513" x2="457.01837766006554" y1="-205.52087686162986" y2="-195.94360684105027" stroke-width="5" stroke="#85a2b6" stroke-linecap="round"></line><line x1="722.5956476806451" x2="713.0183776600655" y1="-205.52087686162986" y2="-195.94360684105027" stroke-width="5" stroke="#85a2b6" stroke-linecap="round"></line><line x1="210.59564768064513" x2="201.01837766006554" y1="50.47912313837014" y2="60.05639315894973" stroke-width="5" stroke="#85a2b6" stroke-linecap="round"></line><line x1="466.59564768064513" x2="457.01837766006554" y1="50.47912313837014" y2="60.05639315894973" stroke-width="5" stroke="#85a2b6" stroke-linecap="round"></line><line x1="722.5956476806451" x2="713.0183776600655" y1="50.47912313837014" y2="60.05639315894973" stroke-width="5" stroke="#85a2b6" stroke-linecap="round"></line><line x1="90.45762239647235" x2="76.63526159386521" y1="167.76529402525205" y2="181.58765482785918" stroke-width="5" stroke="#85a2b6" stroke-linecap="round"></line><line x1="90.45762239647235" x2="76.63526159386521" y1="-344.23470597474795" y2="-330.4123451721408" stroke-width="5" stroke="#85a2b6" stroke-linecap="round"></line><line x1="346.45762239647235" x2="332.6352615938652" y1="-344.23470597474795" y2="-330.4123451721408" stroke-width="5" stroke="#85a2b6" stroke-linecap="round"></line><line x1="602.4576223964723" x2="588.6352615938652" y1="-344.23470597474795" y2="-330.4123451721408" stroke-width="5" stroke="#85a2b6" stroke-linecap="round"></line><line x1="90.45762239647235" x2="76.63526159386521" y1="-88.23470597474795" y2="-74.41234517214082" stroke-width="5" stroke="#85a2b6" stroke-linecap="round"></line><line x1="346.45762239647235" x2="332.6352615938652" y1="-88.23470597474795" y2="-74.41234517214082" stroke-width="5" stroke="#85a2b6" stroke-linecap="round"></line><line x1="602.4576223964723" x2="588.6352615938652" y1="-88.23470597474795" y2="-74.41234517214082" stroke-width="5" stroke="#85a2b6" stroke-linecap="round"></line><line x1="90.45762239647235" x2="76.63526159386521" y1="167.76529402525205" y2="181.58765482785918" stroke-width="5" stroke="#85a2b6" stroke-linecap="round"></line><line x1="346.45762239647235" x2="332.6352615938652" y1="167.76529402525205" y2="181.58765482785918" stroke-width="5" stroke="#85a2b6" stroke-linecap="round"></line><line x1="602.4576223964723" x2="588.6352615938652" y1="167.76529402525205" y2="181.58765482785918" stroke-width="5" stroke="#85a2b6" stroke-linecap="round"></line><line x1="249.82371667515432" x2="239.50422948267473" y1="148.1247194609459" y2="158.44420665342548" stroke-width="5" stroke="#85a2b6" stroke-linecap="round"></line><line x1="249.82371667515432" x2="239.50422948267473" y1="-363.8752805390541" y2="-353.55579334657455" stroke-width="5" stroke="#85a2b6" stroke-linecap="round"></line><line x1="505.8237166751543" x2="495.50422948267476" y1="-363.8752805390541" y2="-353.55579334657455" stroke-width="5" stroke="#85a2b6" stroke-linecap="round"></line><line x1="761.8237166751543" x2="751.5042294826748" y1="-363.8752805390541" y2="-353.55579334657455" stroke-width="5" stroke="#85a2b6" stroke-linecap="round"></line><line x1="249.82371667515432" x2="239.50422948267473" y1="-107.8752805390541" y2="-97.55579334657452" stroke-width="5" stroke="#85a2b6" stroke-linecap="round"></line><line x1="505.8237166751543" x2="495.50422948267476" y1="-107.8752805390541" y2="-97.55579334657452" stroke-width="5" stroke="#85a2b6" stroke-linecap="round"></line><line x1="761.8237166751543" x2="751.5042294826748" y1="-107.8752805390541" y2="-97.55579334657452" stroke-width="5" stroke="#85a2b6" stroke-linecap="round"></line><line x1="249.82371667515432" x2="239.50422948267473" y1="148.1247194609459" y2="158.44420665342548" stroke-width="5" stroke="#85a2b6" stroke-linecap="round"></line><line x1="505.8237166751543" x2="495.50422948267476" y1="148.1247194609459" y2="158.44420665342548" stroke-width="5" stroke="#85a2b6" stroke-linecap="round"></line><line x1="761.8237166751543" x2="751.5042294826748" y1="148.1247194609459" y2="158.44420665342548" stroke-width="5" stroke="#85a2b6" stroke-linecap="round"></line><line x1="148.28683280356057" x2="140.36350468807865" y1="188.29155105652046" y2="196.21487917200238" stroke-width="5" stroke="#85a2b6" stroke-linecap="round"></line><line x1="148.28683280356057" x2="140.36350468807865" y1="-323.70844894347954" y2="-315.7851208279976" stroke-width="5" stroke="#85a2b6" stroke-linecap="round"></line><line x1="404.28683280356057" x2="396.36350468807865" y1="-323.70844894347954" y2="-315.7851208279976" stroke-width="5" stroke="#85a2b6" stroke-linecap="round"></line><line x1="660.2868328035606" x2="652.3635046880786" y1="-323.70844894347954" y2="-315.7851208279976" stroke-width="5" stroke="#85a2b6" stroke-linecap="round"></line><line x1="148.28683280356057" x2="140.36350468807865" y1="-67.70844894347954" y2="-59.785120827997616" stroke-width="5" stroke="#85a2b6" stroke-linecap="round"></line><line x1="404.28683280356057" x2="396.36350468807865" y1="-67.70844894347954" y2="-59.785120827997616" stroke-width="5" stroke="#85a2b6" stroke-linecap="round"></line><line x1="660.2868328035606" x2="652.3635046880786" y1="-67.70844894347954" y2="-59.785120827997616" stroke-width="5" stroke="#85a2b6" stroke-linecap="round"></line><line x1="148.28683280356057" x2="140.36350468807865" y1="188.29155105652046" y2="196.21487917200238" stroke-width="5" stroke="#85a2b6" stroke-linecap="round"></line><line x1="404.28683280356057" x2="396.36350468807865" y1="188.29155105652046" y2="196.21487917200238" stroke-width="5" stroke="#85a2b6" stroke-linecap="round"></line><line x1="660.2868328035606" x2="652.3635046880786" y1="188.29155105652046" y2="196.21487917200238" stroke-width="5" stroke="#85a2b6" stroke-linecap="round"></line><line x1="10.810835302198255" x2="-7.105588857339965" y1="208.60128597160315" y2="226.51771013114137" stroke-width="5" stroke="#85a2b6" stroke-linecap="round"></line><line x1="10.810835302198255" x2="-7.105588857339965" y1="-303.39871402839685" y2="-285.48228986885863" stroke-width="5" stroke="#85a2b6" stroke-linecap="round"></line><line x1="266.81083530219826" x2="248.89441114266003" y1="-303.39871402839685" y2="-285.48228986885863" stroke-width="5" stroke="#85a2b6" stroke-linecap="round"></line><line x1="522.8108353021983" x2="504.89441114266003" y1="-303.39871402839685" y2="-285.48228986885863" stroke-width="5" stroke="#85a2b6" stroke-linecap="round"></line><line x1="10.810835302198255" x2="-7.105588857339965" y1="-47.39871402839685" y2="-29.48228986885863" stroke-width="5" stroke="#85a2b6" stroke-linecap="round"></line><line x1="266.81083530219826" x2="248.89441114266003" y1="-47.39871402839685" y2="-29.48228986885863" stroke-width="5" stroke="#85a2b6" stroke-linecap="round"></line><line x1="522.8108353021983" x2="504.89441114266003" y1="-47.39871402839685" y2="-29.48228986885863" stroke-width="5" stroke="#85a2b6" stroke-linecap="round"></line><line x1="10.810835302198255" x2="-7.105588857339965" y1="208.60128597160315" y2="226.51771013114137" stroke-width="5" stroke="#85a2b6" stroke-linecap="round"></line><line x1="266.81083530219826" x2="248.89441114266003" y1="208.60128597160315" y2="226.51771013114137" stroke-width="5" stroke="#85a2b6" stroke-linecap="round"></line><line x1="522.8108353021983" x2="504.89441114266003" y1="208.60128597160315" y2="226.51771013114137" stroke-width="5" stroke="#85a2b6" stroke-linecap="round"></line><line x1="195.2815771903775" x2="176.47507370019474" y1="208.79358290665903" y2="227.6000863968418" stroke-width="5" stroke="#85a2b6" stroke-linecap="round"></line><line x1="195.2815771903775" x2="176.47507370019474" y1="-303.206417093341" y2="-284.3999136031582" stroke-width="5" stroke="#85a2b6" stroke-linecap="round"></line><line x1="451.2815771903775" x2="432.47507370019474" y1="-303.206417093341" y2="-284.3999136031582" stroke-width="5" stroke="#85a2b6" stroke-linecap="round"></line><line x1="707.2815771903774" x2="688.4750737001948" y1="-303.206417093341" y2="-284.3999136031582" stroke-width="5" stroke="#85a2b6" stroke-linecap="round"></line><line x1="195.2815771903775" x2="176.47507370019474" y1="-47.206417093340974" y2="-28.39991360315821" stroke-width="5" stroke="#85a2b6" stroke-linecap="round"></line><line x1="451.2815771903775" x2="432.47507370019474" y1="-47.206417093340974" y2="-28.39991360315821" stroke-width="5" stroke="#85a2b6" stroke-linecap="round"></line><line x1="707.2815771903774" x2="688.4750737001948" y1="-47.206417093340974" y2="-28.39991360315821" stroke-width="5" stroke="#85a2b6" stroke-linecap="round"></line><line x1="195.2815771903775" x2="176.47507370019474" y1="208.79358290665903" y2="227.6000863968418" stroke-width="5" stroke="#85a2b6" stroke-linecap="round"></line><line x1="451.2815771903775" x2="432.47507370019474" y1="208.79358290665903" y2="227.6000863968418" stroke-width="5" stroke="#85a2b6" stroke-linecap="round"></line><line x1="707.2815771903774" x2="688.4750737001948" y1="208.79358290665903" y2="227.6000863968418" stroke-width="5" stroke="#85a2b6" stroke-linecap="round"></line>
  <animateTransform attributeName="transform" type="translate" values="0 0;-256 256" keyTimes="0;1" repeatCount="indefinite" dur="16.666666666666664s"></animateTransform>
</g><g transform="translate(-45.6194 45.6194)">
  <line x1="113.93992059578173" x2="99.39463634141745" y1="95.48472400124999" y2="110.03000825561426" stroke-width="5" stroke="#85a2b6" stroke-linecap="round"></line><line x1="113.93992059578173" x2="99.39463634141745" y1="-416.51527599875" y2="-401.96999174438577" stroke-width="5" stroke="#85a2b6" stroke-linecap="round"></line><line x1="369.9399205957817" x2="355.3946363414175" y1="-416.51527599875" y2="-401.96999174438577" stroke-width="5" stroke="#85a2b6" stroke-linecap="round"></line><line x1="625.9399205957817" x2="611.3946363414175" y1="-416.51527599875" y2="-401.96999174438577" stroke-width="5" stroke="#85a2b6" stroke-linecap="round"></line><line x1="113.93992059578173" x2="99.39463634141745" y1="-160.51527599875" y2="-145.96999174438574" stroke-width="5" stroke="#85a2b6" stroke-linecap="round"></line><line x1="369.9399205957817" x2="355.3946363414175" y1="-160.51527599875" y2="-145.96999174438574" stroke-width="5" stroke="#85a2b6" stroke-linecap="round"></line><line x1="625.9399205957817" x2="611.3946363414175" y1="-160.51527599875" y2="-145.96999174438574" stroke-width="5" stroke="#85a2b6" stroke-linecap="round"></line><line x1="113.93992059578173" x2="99.39463634141745" y1="95.48472400124999" y2="110.03000825561426" stroke-width="5" stroke="#85a2b6" stroke-linecap="round"></line><line x1="369.9399205957817" x2="355.3946363414175" y1="95.48472400124999" y2="110.03000825561426" stroke-width="5" stroke="#85a2b6" stroke-linecap="round"></line><line x1="625.9399205957817" x2="611.3946363414175" y1="95.48472400124999" y2="110.03000825561426" stroke-width="5" stroke="#85a2b6" stroke-linecap="round"></line><line x1="230.75497019864983" x2="221.28938691040506" y1="46.83366931070917" y2="56.29925259895391" stroke-width="5" stroke="#bbcedd" stroke-linecap="round"></line><line x1="230.75497019864983" x2="221.28938691040506" y1="-465.1663306892908" y2="-455.7007474010461" stroke-width="5" stroke="#bbcedd" stroke-linecap="round"></line><line x1="486.75497019864986" x2="477.289386910405" y1="-465.1663306892908" y2="-455.7007474010461" stroke-width="5" stroke="#bbcedd" stroke-linecap="round"></line><line x1="742.7549701986499" x2="733.289386910405" y1="-465.1663306892908" y2="-455.7007474010461" stroke-width="5" stroke="#bbcedd" stroke-linecap="round"></line><line x1="230.75497019864983" x2="221.28938691040506" y1="-209.16633068929082" y2="-199.7007474010461" stroke-width="5" stroke="#bbcedd" stroke-linecap="round"></line><line x1="486.75497019864986" x2="477.289386910405" y1="-209.16633068929082" y2="-199.7007474010461" stroke-width="5" stroke="#bbcedd" stroke-linecap="round"></line><line x1="742.7549701986499" x2="733.289386910405" y1="-209.16633068929082" y2="-199.7007474010461" stroke-width="5" stroke="#bbcedd" stroke-linecap="round"></line><line x1="230.75497019864983" x2="221.28938691040506" y1="46.83366931070917" y2="56.29925259895391" stroke-width="5" stroke="#bbcedd" stroke-linecap="round"></line><line x1="486.75497019864986" x2="477.289386910405" y1="46.83366931070917" y2="56.29925259895391" stroke-width="5" stroke="#bbcedd" stroke-linecap="round"></line><line x1="742.7549701986499" x2="733.289386910405" y1="46.83366931070917" y2="56.29925259895391" stroke-width="5" stroke="#bbcedd" stroke-linecap="round"></line><line x1="18.026558206608357" x2="-7.332068641200083" y1="48.501715434037564" y2="73.860342281846" stroke-width="5" stroke="#bbcedd" stroke-linecap="round"></line><line x1="18.026558206608357" x2="-7.332068641200083" y1="-463.4982845659624" y2="-438.139657718154" stroke-width="5" stroke="#bbcedd" stroke-linecap="round"></line><line x1="274.02655820660834" x2="248.6679313587999" y1="-463.4982845659624" y2="-438.139657718154" stroke-width="5" stroke="#bbcedd" stroke-linecap="round"></line><line x1="530.0265582066083" x2="504.66793135879993" y1="-463.4982845659624" y2="-438.139657718154" stroke-width="5" stroke="#bbcedd" stroke-linecap="round"></line><line x1="18.026558206608357" x2="-7.332068641200083" y1="-207.49828456596242" y2="-182.139657718154" stroke-width="5" stroke="#bbcedd" stroke-linecap="round"></line><line x1="274.02655820660834" x2="248.6679313587999" y1="-207.49828456596242" y2="-182.139657718154" stroke-width="5" stroke="#bbcedd" stroke-linecap="round"></line><line x1="530.0265582066083" x2="504.66793135879993" y1="-207.49828456596242" y2="-182.139657718154" stroke-width="5" stroke="#bbcedd" stroke-linecap="round"></line><line x1="18.026558206608357" x2="-7.332068641200083" y1="48.501715434037564" y2="73.860342281846" stroke-width="5" stroke="#bbcedd" stroke-linecap="round"></line><line x1="274.02655820660834" x2="248.6679313587999" y1="48.501715434037564" y2="73.860342281846" stroke-width="5" stroke="#bbcedd" stroke-linecap="round"></line><line x1="530.0265582066083" x2="504.66793135879993" y1="48.501715434037564" y2="73.860342281846" stroke-width="5" stroke="#bbcedd" stroke-linecap="round"></line><line x1="73.27579225045652" x2="50.78655942562208" y1="202.97209678690152" y2="225.46132961173598" stroke-width="5" stroke="#bbcedd" stroke-linecap="round"></line><line x1="73.27579225045652" x2="50.78655942562208" y1="-309.0279032130985" y2="-286.538670388264" stroke-width="5" stroke="#bbcedd" stroke-linecap="round"></line><line x1="329.2757922504565" x2="306.7865594256221" y1="-309.0279032130985" y2="-286.538670388264" stroke-width="5" stroke="#bbcedd" stroke-linecap="round"></line><line x1="585.2757922504566" x2="562.786559425622" y1="-309.0279032130985" y2="-286.538670388264" stroke-width="5" stroke="#bbcedd" stroke-linecap="round"></line><line x1="73.27579225045652" x2="50.78655942562208" y1="-53.02790321309848" y2="-30.538670388264023" stroke-width="5" stroke="#bbcedd" stroke-linecap="round"></line><line x1="329.2757922504565" x2="306.7865594256221" y1="-53.02790321309848" y2="-30.538670388264023" stroke-width="5" stroke="#bbcedd" stroke-linecap="round"></line><line x1="585.2757922504566" x2="562.786559425622" y1="-53.02790321309848" y2="-30.538670388264023" stroke-width="5" stroke="#bbcedd" stroke-linecap="round"></line><line x1="73.27579225045652" x2="50.78655942562208" y1="202.97209678690152" y2="225.46132961173598" stroke-width="5" stroke="#bbcedd" stroke-linecap="round"></line><line x1="329.2757922504565" x2="306.7865594256221" y1="202.97209678690152" y2="225.46132961173598" stroke-width="5" stroke="#bbcedd" stroke-linecap="round"></line><line x1="585.2757922504566" x2="562.786559425622" y1="202.97209678690152" y2="225.46132961173598" stroke-width="5" stroke="#bbcedd" stroke-linecap="round"></line><line x1="56.639993866404765" x2="27.281365934386496" y1="196.83182526812476" y2="226.19045320014305" stroke-width="5" stroke="#bbcedd" stroke-linecap="round"></line><line x1="56.639993866404765" x2="27.281365934386496" y1="-315.16817473187524" y2="-285.80954679985695" stroke-width="5" stroke="#bbcedd" stroke-linecap="round"></line><line x1="312.6399938664048" x2="283.2813659343865" y1="-315.16817473187524" y2="-285.80954679985695" stroke-width="5" stroke="#bbcedd" stroke-linecap="round"></line><line x1="568.6399938664048" x2="539.2813659343865" y1="-315.16817473187524" y2="-285.80954679985695" stroke-width="5" stroke="#bbcedd" stroke-linecap="round"></line><line x1="56.639993866404765" x2="27.281365934386496" y1="-59.16817473187524" y2="-29.809546799856946" stroke-width="5" stroke="#bbcedd" stroke-linecap="round"></line><line x1="312.6399938664048" x2="283.2813659343865" y1="-59.16817473187524" y2="-29.809546799856946" stroke-width="5" stroke="#bbcedd" stroke-linecap="round"></line><line x1="568.6399938664048" x2="539.2813659343865" y1="-59.16817473187524" y2="-29.809546799856946" stroke-width="5" stroke="#bbcedd" stroke-linecap="round"></line><line x1="56.639993866404765" x2="27.281365934386496" y1="196.83182526812476" y2="226.19045320014305" stroke-width="5" stroke="#bbcedd" stroke-linecap="round"></line><line x1="312.6399938664048" x2="283.2813659343865" y1="196.83182526812476" y2="226.19045320014305" stroke-width="5" stroke="#bbcedd" stroke-linecap="round"></line><line x1="568.6399938664048" x2="539.2813659343865" y1="196.83182526812476" y2="226.19045320014305" stroke-width="5" stroke="#bbcedd" stroke-linecap="round"></line><line x1="68.81508676266895" x2="42.97967814941518" y1="108.79258087522186" y2="134.62798948847563" stroke-width="5" stroke="#bbcedd" stroke-linecap="round"></line><line x1="68.81508676266895" x2="42.97967814941518" y1="-403.20741912477814" y2="-377.37201051152437" stroke-width="5" stroke="#bbcedd" stroke-linecap="round"></line><line x1="324.81508676266895" x2="298.9796781494152" y1="-403.20741912477814" y2="-377.37201051152437" stroke-width="5" stroke="#bbcedd" stroke-linecap="round"></line><line x1="580.8150867626689" x2="554.9796781494151" y1="-403.20741912477814" y2="-377.37201051152437" stroke-width="5" stroke="#bbcedd" stroke-linecap="round"></line><line x1="68.81508676266895" x2="42.97967814941518" y1="-147.20741912477814" y2="-121.37201051152437" stroke-width="5" stroke="#bbcedd" stroke-linecap="round"></line><line x1="324.81508676266895" x2="298.9796781494152" y1="-147.20741912477814" y2="-121.37201051152437" stroke-width="5" stroke="#bbcedd" stroke-linecap="round"></line><line x1="580.8150867626689" x2="554.9796781494151" y1="-147.20741912477814" y2="-121.37201051152437" stroke-width="5" stroke="#bbcedd" stroke-linecap="round"></line><line x1="68.81508676266895" x2="42.97967814941518" y1="108.79258087522186" y2="134.62798948847563" stroke-width="5" stroke="#bbcedd" stroke-linecap="round"></line><line x1="324.81508676266895" x2="298.9796781494152" y1="108.79258087522186" y2="134.62798948847563" stroke-width="5" stroke="#bbcedd" stroke-linecap="round"></line><line x1="580.8150867626689" x2="554.9796781494151" y1="108.79258087522186" y2="134.62798948847563" stroke-width="5" stroke="#bbcedd" stroke-linecap="round"></line><line x1="140.36230201387588" x2="114.87685878032977" y1="137.2681469755592" y2="162.7535902091053" stroke-width="5" stroke="#85a2b6" stroke-linecap="round"></line><line x1="140.36230201387588" x2="114.87685878032977" y1="-374.7318530244408" y2="-349.2464097908947" stroke-width="5" stroke="#85a2b6" stroke-linecap="round"></line><line x1="396.3623020138759" x2="370.87685878032977" y1="-374.7318530244408" y2="-349.2464097908947" stroke-width="5" stroke="#85a2b6" stroke-linecap="round"></line><line x1="652.3623020138759" x2="626.8768587803297" y1="-374.7318530244408" y2="-349.2464097908947" stroke-width="5" stroke="#85a2b6" stroke-linecap="round"></line><line x1="140.36230201387588" x2="114.87685878032977" y1="-118.7318530244408" y2="-93.24640979089469" stroke-width="5" stroke="#85a2b6" stroke-linecap="round"></line><line x1="396.3623020138759" x2="370.87685878032977" y1="-118.7318530244408" y2="-93.24640979089469" stroke-width="5" stroke="#85a2b6" stroke-linecap="round"></line><line x1="652.3623020138759" x2="626.8768587803297" y1="-118.7318530244408" y2="-93.24640979089469" stroke-width="5" stroke="#85a2b6" stroke-linecap="round"></line><line x1="140.36230201387588" x2="114.87685878032977" y1="137.2681469755592" y2="162.7535902091053" stroke-width="5" stroke="#85a2b6" stroke-linecap="round"></line><line x1="396.3623020138759" x2="370.87685878032977" y1="137.2681469755592" y2="162.7535902091053" stroke-width="5" stroke="#85a2b6" stroke-linecap="round"></line><line x1="652.3623020138759" x2="626.8768587803297" y1="137.2681469755592" y2="162.7535902091053" stroke-width="5" stroke="#85a2b6" stroke-linecap="round"></line><line x1="225.55632102374682" x2="217.9977480734775" y1="106.87387234889185" y2="114.43244529916113" stroke-width="5" stroke="#bbcedd" stroke-linecap="round"></line><line x1="225.55632102374682" x2="217.9977480734775" y1="-405.12612765110816" y2="-397.56755470083885" stroke-width="5" stroke="#bbcedd" stroke-linecap="round"></line><line x1="481.5563210237468" x2="473.9977480734775" y1="-405.12612765110816" y2="-397.56755470083885" stroke-width="5" stroke="#bbcedd" stroke-linecap="round"></line><line x1="737.5563210237468" x2="729.9977480734775" y1="-405.12612765110816" y2="-397.56755470083885" stroke-width="5" stroke="#bbcedd" stroke-linecap="round"></line><line x1="225.55632102374682" x2="217.9977480734775" y1="-149.12612765110816" y2="-141.56755470083885" stroke-width="5" stroke="#bbcedd" stroke-linecap="round"></line><line x1="481.5563210237468" x2="473.9977480734775" y1="-149.12612765110816" y2="-141.56755470083885" stroke-width="5" stroke="#bbcedd" stroke-linecap="round"></line><line x1="737.5563210237468" x2="729.9977480734775" y1="-149.12612765110816" y2="-141.56755470083885" stroke-width="5" stroke="#bbcedd" stroke-linecap="round"></line><line x1="225.55632102374682" x2="217.9977480734775" y1="106.87387234889185" y2="114.43244529916113" stroke-width="5" stroke="#bbcedd" stroke-linecap="round"></line><line x1="481.5563210237468" x2="473.9977480734775" y1="106.87387234889185" y2="114.43244529916113" stroke-width="5" stroke="#bbcedd" stroke-linecap="round"></line><line x1="737.5563210237468" x2="729.9977480734775" y1="106.87387234889185" y2="114.43244529916113" stroke-width="5" stroke="#bbcedd" stroke-linecap="round"></line><line x1="97.45589389581134" x2="88.6159743220207" y1="61.4584286866047" y2="70.29834826039534" stroke-width="5" stroke="#bbcedd" stroke-linecap="round"></line><line x1="97.45589389581134" x2="88.6159743220207" y1="-450.5415713133953" y2="-441.70165173960464" stroke-width="5" stroke="#bbcedd" stroke-linecap="round"></line><line x1="353.45589389581136" x2="344.6159743220207" y1="-450.5415713133953" y2="-441.70165173960464" stroke-width="5" stroke="#bbcedd" stroke-linecap="round"></line><line x1="609.4558938958113" x2="600.6159743220207" y1="-450.5415713133953" y2="-441.70165173960464" stroke-width="5" stroke="#bbcedd" stroke-linecap="round"></line><line x1="97.45589389581134" x2="88.6159743220207" y1="-194.5415713133953" y2="-185.70165173960464" stroke-width="5" stroke="#bbcedd" stroke-linecap="round"></line><line x1="353.45589389581136" x2="344.6159743220207" y1="-194.5415713133953" y2="-185.70165173960464" stroke-width="5" stroke="#bbcedd" stroke-linecap="round"></line><line x1="609.4558938958113" x2="600.6159743220207" y1="-194.5415713133953" y2="-185.70165173960464" stroke-width="5" stroke="#bbcedd" stroke-linecap="round"></line><line x1="97.45589389581134" x2="88.6159743220207" y1="61.4584286866047" y2="70.29834826039534" stroke-width="5" stroke="#bbcedd" stroke-linecap="round"></line><line x1="353.45589389581136" x2="344.6159743220207" y1="61.4584286866047" y2="70.29834826039534" stroke-width="5" stroke="#bbcedd" stroke-linecap="round"></line><line x1="609.4558938958113" x2="600.6159743220207" y1="61.4584286866047" y2="70.29834826039534" stroke-width="5" stroke="#bbcedd" stroke-linecap="round"></line><line x1="63.28181761916698" x2="38.827398741037435" y1="94.26185325334042" y2="118.71627213146995" stroke-width="5" stroke="#bbcedd" stroke-linecap="round"></line><line x1="63.28181761916698" x2="38.827398741037435" y1="-417.7381467466596" y2="-393.28372786853004" stroke-width="5" stroke="#bbcedd" stroke-linecap="round"></line><line x1="319.281817619167" x2="294.8273987410374" y1="-417.7381467466596" y2="-393.28372786853004" stroke-width="5" stroke="#bbcedd" stroke-linecap="round"></line><line x1="575.281817619167" x2="550.8273987410374" y1="-417.7381467466596" y2="-393.28372786853004" stroke-width="5" stroke="#bbcedd" stroke-linecap="round"></line><line x1="63.28181761916698" x2="38.827398741037435" y1="-161.7381467466596" y2="-137.28372786853004" stroke-width="5" stroke="#bbcedd" stroke-linecap="round"></line><line x1="319.281817619167" x2="294.8273987410374" y1="-161.7381467466596" y2="-137.28372786853004" stroke-width="5" stroke="#bbcedd" stroke-linecap="round"></line><line x1="575.281817619167" x2="550.8273987410374" y1="-161.7381467466596" y2="-137.28372786853004" stroke-width="5" stroke="#bbcedd" stroke-linecap="round"></line><line x1="63.28181761916698" x2="38.827398741037435" y1="94.26185325334042" y2="118.71627213146995" stroke-width="5" stroke="#bbcedd" stroke-linecap="round"></line><line x1="319.281817619167" x2="294.8273987410374" y1="94.26185325334042" y2="118.71627213146995" stroke-width="5" stroke="#bbcedd" stroke-linecap="round"></line><line x1="575.281817619167" x2="550.8273987410374" y1="94.26185325334042" y2="118.71627213146995" stroke-width="5" stroke="#bbcedd" stroke-linecap="round"></line>
  <animateTransform attributeName="transform" type="translate" values="0 0;-256 256" keyTimes="0;1" repeatCount="indefinite" dur="8.333333333333332s"></animateTransform>
</g><g transform="translate(-196.429 196.429)">
  <line x1="137.40789391518373" x2="126.66952272831853" y1="65.43601824462823" y2="76.17438943149344" stroke-width="5" stroke="#dce4eb" stroke-linecap="round"></line><line x1="137.40789391518373" x2="126.66952272831853" y1="-446.56398175537174" y2="-435.8256105685066" stroke-width="5" stroke="#dce4eb" stroke-linecap="round"></line><line x1="393.40789391518376" x2="382.6695227283185" y1="-446.56398175537174" y2="-435.8256105685066" stroke-width="5" stroke="#dce4eb" stroke-linecap="round"></line><line x1="649.4078939151838" x2="638.6695227283185" y1="-446.56398175537174" y2="-435.8256105685066" stroke-width="5" stroke="#dce4eb" stroke-linecap="round"></line><line x1="137.40789391518373" x2="126.66952272831853" y1="-190.56398175537177" y2="-179.82561056850656" stroke-width="5" stroke="#dce4eb" stroke-linecap="round"></line><line x1="393.40789391518376" x2="382.6695227283185" y1="-190.56398175537177" y2="-179.82561056850656" stroke-width="5" stroke="#dce4eb" stroke-linecap="round"></line><line x1="649.4078939151838" x2="638.6695227283185" y1="-190.56398175537177" y2="-179.82561056850656" stroke-width="5" stroke="#dce4eb" stroke-linecap="round"></line><line x1="137.40789391518373" x2="126.66952272831853" y1="65.43601824462823" y2="76.17438943149344" stroke-width="5" stroke="#dce4eb" stroke-linecap="round"></line><line x1="393.40789391518376" x2="382.6695227283185" y1="65.43601824462823" y2="76.17438943149344" stroke-width="5" stroke="#dce4eb" stroke-linecap="round"></line><line x1="649.4078939151838" x2="638.6695227283185" y1="65.43601824462823" y2="76.17438943149344" stroke-width="5" stroke="#dce4eb" stroke-linecap="round"></line><line x1="152.505912554442" x2="134.04105639796254" y1="207.07003647435053" y2="225.53489263083" stroke-width="5" stroke="#85a2b6" stroke-linecap="round"></line><line x1="152.505912554442" x2="134.04105639796254" y1="-304.92996352564944" y2="-286.46510736917" stroke-width="5" stroke="#85a2b6" stroke-linecap="round"></line><line x1="408.50591255444203" x2="390.0410563979625" y1="-304.92996352564944" y2="-286.46510736917" stroke-width="5" stroke="#85a2b6" stroke-linecap="round"></line><line x1="664.505912554442" x2="646.0410563979625" y1="-304.92996352564944" y2="-286.46510736917" stroke-width="5" stroke="#85a2b6" stroke-linecap="round"></line><line x1="152.505912554442" x2="134.04105639796254" y1="-48.92996352564947" y2="-30.46510736917" stroke-width="5" stroke="#85a2b6" stroke-linecap="round"></line><line x1="408.50591255444203" x2="390.0410563979625" y1="-48.92996352564947" y2="-30.46510736917" stroke-width="5" stroke="#85a2b6" stroke-linecap="round"></line><line x1="664.505912554442" x2="646.0410563979625" y1="-48.92996352564947" y2="-30.46510736917" stroke-width="5" stroke="#85a2b6" stroke-linecap="round"></line><line x1="152.505912554442" x2="134.04105639796254" y1="207.07003647435053" y2="225.53489263083" stroke-width="5" stroke="#85a2b6" stroke-linecap="round"></line><line x1="408.50591255444203" x2="390.0410563979625" y1="207.07003647435053" y2="225.53489263083" stroke-width="5" stroke="#85a2b6" stroke-linecap="round"></line><line x1="664.505912554442" x2="646.0410563979625" y1="207.07003647435053" y2="225.53489263083" stroke-width="5" stroke="#85a2b6" stroke-linecap="round"></line><line x1="255.35523584186367" x2="231.75446617983582" y1="-0.2493822367370413" y2="23.35138742529083" stroke-width="5" stroke="#dce4eb" stroke-linecap="round"></line><line x1="255.35523584186367" x2="231.75446617983582" y1="-512.249382236737" y2="-488.64861257470915" stroke-width="5" stroke="#dce4eb" stroke-linecap="round"></line><line x1="511.35523584186365" x2="487.75446617983584" y1="-512.249382236737" y2="-488.64861257470915" stroke-width="5" stroke="#dce4eb" stroke-linecap="round"></line><line x1="767.3552358418636" x2="743.7544661798358" y1="-512.249382236737" y2="-488.64861257470915" stroke-width="5" stroke="#dce4eb" stroke-linecap="round"></line><line x1="255.35523584186367" x2="231.75446617983582" y1="-256.24938223673706" y2="-232.64861257470918" stroke-width="5" stroke="#dce4eb" stroke-linecap="round"></line><line x1="511.35523584186365" x2="487.75446617983584" y1="-256.24938223673706" y2="-232.64861257470918" stroke-width="5" stroke="#dce4eb" stroke-linecap="round"></line><line x1="767.3552358418636" x2="743.7544661798358" y1="-256.24938223673706" y2="-232.64861257470918" stroke-width="5" stroke="#dce4eb" stroke-linecap="round"></line><line x1="255.35523584186367" x2="231.75446617983582" y1="-0.2493822367370413" y2="23.35138742529083" stroke-width="5" stroke="#dce4eb" stroke-linecap="round"></line><line x1="511.35523584186365" x2="487.75446617983584" y1="-0.2493822367370413" y2="23.35138742529083" stroke-width="5" stroke="#dce4eb" stroke-linecap="round"></line><line x1="767.3552358418636" x2="743.7544661798358" y1="-0.2493822367370413" y2="23.35138742529083" stroke-width="5" stroke="#dce4eb" stroke-linecap="round"></line><line x1="255.35523584186367" x2="231.75446617983582" y1="255.75061776326297" y2="279.35138742529085" stroke-width="5" stroke="#dce4eb" stroke-linecap="round"></line><line x1="259.0244683205285" x2="235.76919098456779" y1="234.14151758543136" y2="257.3967949213921" stroke-width="5" stroke="#dce4eb" stroke-linecap="round"></line><line x1="259.0244683205285" x2="235.76919098456779" y1="-277.85848241456864" y2="-254.6032050786079" stroke-width="5" stroke="#dce4eb" stroke-linecap="round"></line><line x1="515.0244683205285" x2="491.7691909845678" y1="-277.85848241456864" y2="-254.6032050786079" stroke-width="5" stroke="#dce4eb" stroke-linecap="round"></line><line x1="771.0244683205285" x2="747.7691909845678" y1="-277.85848241456864" y2="-254.6032050786079" stroke-width="5" stroke="#dce4eb" stroke-linecap="round"></line><line x1="259.0244683205285" x2="235.76919098456779" y1="-21.85848241456864" y2="1.396794921392086" stroke-width="5" stroke="#dce4eb" stroke-linecap="round"></line><line x1="515.0244683205285" x2="491.7691909845678" y1="-21.85848241456864" y2="1.396794921392086" stroke-width="5" stroke="#dce4eb" stroke-linecap="round"></line><line x1="771.0244683205285" x2="747.7691909845678" y1="-21.85848241456864" y2="1.396794921392086" stroke-width="5" stroke="#dce4eb" stroke-linecap="round"></line><line x1="259.0244683205285" x2="235.76919098456779" y1="234.14151758543136" y2="257.3967949213921" stroke-width="5" stroke="#dce4eb" stroke-linecap="round"></line><line x1="515.0244683205285" x2="491.7691909845678" y1="234.14151758543136" y2="257.3967949213921" stroke-width="5" stroke="#dce4eb" stroke-linecap="round"></line><line x1="771.0244683205285" x2="747.7691909845678" y1="234.14151758543136" y2="257.3967949213921" stroke-width="5" stroke="#dce4eb" stroke-linecap="round"></line><line x1="3.0244683205285128" x2="-20.230809015432214" y1="234.14151758543136" y2="257.3967949213921" stroke-width="5" stroke="#dce4eb" stroke-linecap="round"></line><line x1="45.707754602623474" x2="25.33319030057465" y1="85.5225539657635" y2="105.89711826781235" stroke-width="5" stroke="#dce4eb" stroke-linecap="round"></line><line x1="45.707754602623474" x2="25.33319030057465" y1="-426.4774460342365" y2="-406.10288173218765" stroke-width="5" stroke="#dce4eb" stroke-linecap="round"></line><line x1="301.7077546026235" x2="281.33319030057464" y1="-426.4774460342365" y2="-406.10288173218765" stroke-width="5" stroke="#dce4eb" stroke-linecap="round"></line><line x1="557.7077546026235" x2="537.3331903005746" y1="-426.4774460342365" y2="-406.10288173218765" stroke-width="5" stroke="#dce4eb" stroke-linecap="round"></line><line x1="45.707754602623474" x2="25.33319030057465" y1="-170.4774460342365" y2="-150.10288173218765" stroke-width="5" stroke="#dce4eb" stroke-linecap="round"></line><line x1="301.7077546026235" x2="281.33319030057464" y1="-170.4774460342365" y2="-150.10288173218765" stroke-width="5" stroke="#dce4eb" stroke-linecap="round"></line><line x1="557.7077546026235" x2="537.3331903005746" y1="-170.4774460342365" y2="-150.10288173218765" stroke-width="5" stroke="#dce4eb" stroke-linecap="round"></line><line x1="45.707754602623474" x2="25.33319030057465" y1="85.5225539657635" y2="105.89711826781235" stroke-width="5" stroke="#dce4eb" stroke-linecap="round"></line><line x1="301.7077546026235" x2="281.33319030057464" y1="85.5225539657635" y2="105.89711826781235" stroke-width="5" stroke="#dce4eb" stroke-linecap="round"></line><line x1="557.7077546026235" x2="537.3331903005746" y1="85.5225539657635" y2="105.89711826781235" stroke-width="5" stroke="#dce4eb" stroke-linecap="round"></line><line x1="60.36218638480782" x2="49.87507607523289" y1="91.48256310786753" y2="101.96967341744248" stroke-width="5" stroke="#dce4eb" stroke-linecap="round"></line><line x1="60.36218638480782" x2="49.87507607523289" y1="-420.5174368921325" y2="-410.0303265825575" stroke-width="5" stroke="#dce4eb" stroke-linecap="round"></line><line x1="316.36218638480784" x2="305.87507607523287" y1="-420.5174368921325" y2="-410.0303265825575" stroke-width="5" stroke="#dce4eb" stroke-linecap="round"></line><line x1="572.3621863848078" x2="561.8750760752329" y1="-420.5174368921325" y2="-410.0303265825575" stroke-width="5" stroke="#dce4eb" stroke-linecap="round"></line><line x1="60.36218638480782" x2="49.87507607523289" y1="-164.51743689213248" y2="-154.0303265825575" stroke-width="5" stroke="#dce4eb" stroke-linecap="round"></line><line x1="316.36218638480784" x2="305.87507607523287" y1="-164.51743689213248" y2="-154.0303265825575" stroke-width="5" stroke="#dce4eb" stroke-linecap="round"></line><line x1="572.3621863848078" x2="561.8750760752329" y1="-164.51743689213248" y2="-154.0303265825575" stroke-width="5" stroke="#dce4eb" stroke-linecap="round"></line><line x1="60.36218638480782" x2="49.87507607523289" y1="91.48256310786753" y2="101.96967341744248" stroke-width="5" stroke="#dce4eb" stroke-linecap="round"></line><line x1="316.36218638480784" x2="305.87507607523287" y1="91.48256310786753" y2="101.96967341744248" stroke-width="5" stroke="#dce4eb" stroke-linecap="round"></line><line x1="572.3621863848078" x2="561.8750760752329" y1="91.48256310786753" y2="101.96967341744248" stroke-width="5" stroke="#dce4eb" stroke-linecap="round"></line><line x1="28.232367292659845" x2="17.91755533335133" y1="179.9218342094288" y2="190.23664616873734" stroke-width="5" stroke="#85a2b6" stroke-linecap="round"></line><line x1="28.232367292659845" x2="17.91755533335133" y1="-332.07816579057123" y2="-321.76335383126263" stroke-width="5" stroke="#85a2b6" stroke-linecap="round"></line><line x1="284.23236729265983" x2="273.91755533335134" y1="-332.07816579057123" y2="-321.76335383126263" stroke-width="5" stroke="#85a2b6" stroke-linecap="round"></line><line x1="540.2323672926599" x2="529.9175553333513" y1="-332.07816579057123" y2="-321.76335383126263" stroke-width="5" stroke="#85a2b6" stroke-linecap="round"></line><line x1="28.232367292659845" x2="17.91755533335133" y1="-76.0781657905712" y2="-65.76335383126266" stroke-width="5" stroke="#85a2b6" stroke-linecap="round"></line><line x1="284.23236729265983" x2="273.91755533335134" y1="-76.0781657905712" y2="-65.76335383126266" stroke-width="5" stroke="#85a2b6" stroke-linecap="round"></line><line x1="540.2323672926599" x2="529.9175553333513" y1="-76.0781657905712" y2="-65.76335383126266" stroke-width="5" stroke="#85a2b6" stroke-linecap="round"></line><line x1="28.232367292659845" x2="17.91755533335133" y1="179.9218342094288" y2="190.23664616873734" stroke-width="5" stroke="#85a2b6" stroke-linecap="round"></line><line x1="284.23236729265983" x2="273.91755533335134" y1="179.9218342094288" y2="190.23664616873734" stroke-width="5" stroke="#85a2b6" stroke-linecap="round"></line><line x1="540.2323672926599" x2="529.9175553333513" y1="179.9218342094288" y2="190.23664616873734" stroke-width="5" stroke="#85a2b6" stroke-linecap="round"></line><line x1="167.65620811721945" x2="143.62290622710063" y1="50.85459836289503" y2="74.88790025301383" stroke-width="5" stroke="#dce4eb" stroke-linecap="round"></line><line x1="167.65620811721945" x2="143.62290622710063" y1="-461.14540163710495" y2="-437.1120997469862" stroke-width="5" stroke="#dce4eb" stroke-linecap="round"></line><line x1="423.6562081172194" x2="399.62290622710066" y1="-461.14540163710495" y2="-437.1120997469862" stroke-width="5" stroke="#dce4eb" stroke-linecap="round"></line><line x1="679.6562081172194" x2="655.6229062271007" y1="-461.14540163710495" y2="-437.1120997469862" stroke-width="5" stroke="#dce4eb" stroke-linecap="round"></line><line x1="167.65620811721945" x2="143.62290622710063" y1="-205.14540163710495" y2="-181.1120997469862" stroke-width="5" stroke="#dce4eb" stroke-linecap="round"></line><line x1="423.6562081172194" x2="399.62290622710066" y1="-205.14540163710495" y2="-181.1120997469862" stroke-width="5" stroke="#dce4eb" stroke-linecap="round"></line><line x1="679.6562081172194" x2="655.6229062271007" y1="-205.14540163710495" y2="-181.1120997469862" stroke-width="5" stroke="#dce4eb" stroke-linecap="round"></line><line x1="167.65620811721945" x2="143.62290622710063" y1="50.85459836289503" y2="74.88790025301383" stroke-width="5" stroke="#dce4eb" stroke-linecap="round"></line><line x1="423.6562081172194" x2="399.62290622710066" y1="50.85459836289503" y2="74.88790025301383" stroke-width="5" stroke="#dce4eb" stroke-linecap="round"></line><line x1="679.6562081172194" x2="655.6229062271007" y1="50.85459836289503" y2="74.88790025301383" stroke-width="5" stroke="#dce4eb" stroke-linecap="round"></line><line x1="59.247330464298784" x2="51.135995588362334" y1="22.573206561045822" y2="30.684541436982272" stroke-width="5" stroke="#dce4eb" stroke-linecap="round"></line><line x1="59.247330464298784" x2="51.135995588362334" y1="-489.4267934389542" y2="-481.3154585630177" stroke-width="5" stroke="#dce4eb" stroke-linecap="round"></line><line x1="315.2473304642988" x2="307.13599558836233" y1="-489.4267934389542" y2="-481.3154585630177" stroke-width="5" stroke="#dce4eb" stroke-linecap="round"></line><line x1="571.2473304642988" x2="563.1359955883623" y1="-489.4267934389542" y2="-481.3154585630177" stroke-width="5" stroke="#dce4eb" stroke-linecap="round"></line><line x1="59.247330464298784" x2="51.135995588362334" y1="-233.42679343895418" y2="-225.31545856301773" stroke-width="5" stroke="#dce4eb" stroke-linecap="round"></line><line x1="315.2473304642988" x2="307.13599558836233" y1="-233.42679343895418" y2="-225.31545856301773" stroke-width="5" stroke="#dce4eb" stroke-linecap="round"></line><line x1="571.2473304642988" x2="563.1359955883623" y1="-233.42679343895418" y2="-225.31545856301773" stroke-width="5" stroke="#dce4eb" stroke-linecap="round"></line><line x1="59.247330464298784" x2="51.135995588362334" y1="22.573206561045822" y2="30.684541436982272" stroke-width="5" stroke="#dce4eb" stroke-linecap="round"></line><line x1="315.2473304642988" x2="307.13599558836233" y1="22.573206561045822" y2="30.684541436982272" stroke-width="5" stroke="#dce4eb" stroke-linecap="round"></line><line x1="571.2473304642988" x2="563.1359955883623" y1="22.573206561045822" y2="30.684541436982272" stroke-width="5" stroke="#dce4eb" stroke-linecap="round"></line><line x1="190.54193427929113" x2="177.32834816408536" y1="147.8773808047166" y2="161.09096691992238" stroke-width="5" stroke="#dce4eb" stroke-linecap="round"></line><line x1="190.54193427929113" x2="177.32834816408536" y1="-364.1226191952834" y2="-350.9090330800776" stroke-width="5" stroke="#dce4eb" stroke-linecap="round"></line><line x1="446.5419342792911" x2="433.32834816408536" y1="-364.1226191952834" y2="-350.9090330800776" stroke-width="5" stroke="#dce4eb" stroke-linecap="round"></line><line x1="702.5419342792911" x2="689.3283481640854" y1="-364.1226191952834" y2="-350.9090330800776" stroke-width="5" stroke="#dce4eb" stroke-linecap="round"></line><line x1="190.54193427929113" x2="177.32834816408536" y1="-108.12261919528339" y2="-94.90903308007762" stroke-width="5" stroke="#dce4eb" stroke-linecap="round"></line><line x1="446.5419342792911" x2="433.32834816408536" y1="-108.12261919528339" y2="-94.90903308007762" stroke-width="5" stroke="#dce4eb" stroke-linecap="round"></line><line x1="702.5419342792911" x2="689.3283481640854" y1="-108.12261919528339" y2="-94.90903308007762" stroke-width="5" stroke="#dce4eb" stroke-linecap="round"></line><line x1="190.54193427929113" x2="177.32834816408536" y1="147.8773808047166" y2="161.09096691992238" stroke-width="5" stroke="#dce4eb" stroke-linecap="round"></line><line x1="446.5419342792911" x2="433.32834816408536" y1="147.8773808047166" y2="161.09096691992238" stroke-width="5" stroke="#dce4eb" stroke-linecap="round"></line><line x1="702.5419342792911" x2="689.3283481640854" y1="147.8773808047166" y2="161.09096691992238" stroke-width="5" stroke="#dce4eb" stroke-linecap="round"></line>
  <animateTransform attributeName="transform" type="translate" values="0 0;-256 256" keyTimes="0;1" repeatCount="indefinite" dur="5.5555555555555545s"></animateTransform>
</g></g>
  </pattern>
</defs>
<rect x="0" y="0" width="1083.997314453125" height="321.9921875" fill="url(#pid-0.38937975301527583)"></rect>
</svg>